<?xml version="1.0" encoding="UTF-8"?>
<!DOCTYPE svg PUBLIC "-//W3C//DTD SVG 1.1//EN" "http://www.w3.org/Graphics/SVG/1.1/DTD/svg11.dtd">
<svg xmlns="http://www.w3.org/2000/svg" version="1.1" width="25px" height="43px" style="shape-rendering:geometricPrecision; text-rendering:geometricPrecision; image-rendering:optimizeQuality; fill-rule:evenodd; clip-rule:evenodd" xmlns:xlink="http://www.w3.org/1999/xlink">
<g><path style="opacity:0.746" fill="#f071a0" d="M 24.5,1.5 C 24.5,3.16667 24.5,4.83333 24.5,6.5C 23.6364,7.68826 22.6364,8.85492 21.5,10C 22.6364,11.1451 23.6364,12.3117 24.5,13.5C 24.5,17.1667 24.5,20.8333 24.5,24.5C 22.8266,27.1666 20.4933,29.1666 17.5,30.5C 16.5713,31.6888 16.238,33.0222 16.5,34.5C 17.5,34.5 18.5,34.5 19.5,34.5C 19.5,36.5 19.5,38.5 19.5,40.5C 17.8212,40.2852 16.8212,40.9519 16.5,42.5C 14.1667,42.5 11.8333,42.5 9.5,42.5C 7.83291,41.1464 6.49958,39.4797 5.5,37.5C 5.71893,35.0847 7.05227,34.0847 9.5,34.5C 9.76202,33.0222 9.42869,31.6888 8.5,30.5C -0.210716,25.113 -1.54405,18.2797 4.5,10C 2.21772,7.60259 0.884385,4.76926 0.5,1.5C 4.16932,0.697132 6.83599,1.8638 8.5,5C 13.1849,7.53231 16.8515,6.53231 19.5,2C 21.1341,1.50649 22.8008,1.33982 24.5,1.5 Z M 11.5,12.5 C 19.1533,13.9598 20.82,17.7932 16.5,24C 10.9919,25.9243 7.65859,24.091 6.5,18.5C 7.49705,15.845 9.16372,13.845 11.5,12.5 Z"/></g>
</svg>
