<?xml version="1.0" encoding="UTF-8"?>
<!DOCTYPE svg PUBLIC "-//W3C//DTD SVG 1.1//EN" "http://www.w3.org/Graphics/SVG/1.1/DTD/svg11.dtd">
<svg xmlns="http://www.w3.org/2000/svg" version="1.1" width="33px" height="32px" style="shape-rendering:geometricPrecision; text-rendering:geometricPrecision; image-rendering:optimizeQuality; fill-rule:evenodd; clip-rule:evenodd" xmlns:xlink="http://www.w3.org/1999/xlink">
<g><path style="opacity:0.756" fill="#6a78da" d="M 32.5,1.5 C 32.5,4.16667 32.5,6.83333 32.5,9.5C 31.1779,9.66997 30.0113,9.33663 29,8.5C 27.3333,10.1667 25.6667,11.8333 24,13.5C 25.1888,18.7081 24.5221,23.7081 22,28.5C 20.8549,29.6364 19.6883,30.6364 18.5,31.5C 14.1667,31.5 9.83333,31.5 5.5,31.5C 3.01442,29.1946 1.01442,26.5279 -0.5,23.5C -0.5,21.8333 -0.5,20.1667 -0.5,18.5C 3.18441,9.5302 9.85107,6.36353 19.5,9C 21.1667,7.33333 22.8333,5.66667 24.5,4C 22.8753,3.14748 22.5419,2.14748 23.5,1C 26.592,0.264226 29.592,0.430893 32.5,1.5 Z M 9.5,14.5 C 16.9973,14.8018 19.3307,18.3018 16.5,25C 10.9529,27.8672 7.28627,26.3672 5.5,20.5C 6.46708,18.2099 7.80042,16.2099 9.5,14.5 Z"/></g>
</svg>
